<?xml version="1.0" encoding="UTF-8"?>
<!-- Created with Inkscape (http://www.inkscape.org/) -->
<svg width="256" height="256" version="1.1" viewBox="0 0 67.733 67.733" xml:space="preserve" xmlns="http://www.w3.org/2000/svg"><path d="m65.032 33.867a31.166 31.264 0 0 1-31.166 31.264 31.166 31.264 0 0 1-31.166-31.264 31.166 31.264 0 0 1 31.166-31.264 31.166 31.264 0 0 1 31.166 31.264z" fill="#434158" stroke="#dfe0e8" stroke-width=".33718"/><g fill="#1c283b"><path d="m33.867 22.625a11.242 11.242 0 0 0-11.242 11.242 11.242 11.242 0 0 0 11.242 11.242 11.242 11.242 0 0 0 11.242-11.242 11.242 11.242 0 0 0-11.242-11.242zm0 5.8508a5.3909 5.3909 0 0 1 5.3909 5.3909 5.3909 5.3909 0 0 1-5.3909 5.3909 5.3909 5.3909 0 0 1-5.3909-5.3909 5.3909 5.3909 0 0 1 5.3909-5.3909z" stroke="#2994a6" stroke-width=".80028"/><path d="m39.258 33.867a5.3909 5.3909 0 0 1-5.3909 5.3909 5.3909 5.3909 0 0 1-5.3909-5.3909 5.3909 5.3909 0 0 1 5.3909-5.3909 5.3909 5.3909 0 0 1 5.3909 5.3909z" stroke="#dfe0e8" stroke-width="1.9182"/><path d="m6.494 59.713c0-0.52493-0.4064-0.52493-0.67733-0.52493h-2.5739v-11.091h2.5739c0.254 0 0.67733 0 0.67733-0.508 0-0.52493-0.4064-0.52493-0.67733-0.52493h-3.0649c-0.5588 0-0.67733 0.1524-0.67733 0.69426v11.769c0 0.52493 0.1016 0.69426 0.67733 0.69426h3.0649c0.254 0 0.67733 0 0.67733-0.508zm8.7037-3.7084c0-1.0837-0.6096-1.7949-0.8128-2.0151-0.69426-0.67733-1.1515-0.79586-2.4723-1.1007l-1.3716-0.3048c-0.7112-0.2032-1.3547-0.79586-1.3547-1.5917 0-0.8636 0.82973-1.6764 2.032-1.6764 1.9981 0 2.2521 1.5917 2.3537 2.1167 0.0508 0.37253 0.23707 0.47413 0.57573 0.47413 0.59266 0 0.59266-0.3556 0.59266-0.69426v-2.2352c0-0.27093 0-0.69426-0.508-0.69426-0.4064 0-0.49106 0.28787-0.62653 0.79586-0.69426-0.59267-1.6087-0.79586-2.3707-0.79586-1.8796 0-3.1496 1.3377-3.1496 2.7771 0 1.1345 0.77893 2.2521 2.1844 2.6585l1.9473 0.4572c0.47413 0.1016 1.8796 0.44027 1.8796 1.9135 0 0.88053-0.72813 1.8796-2.0659 1.8796-0.47413 0-1.3039-0.06773-1.9812-0.52493-0.7112-0.4572-0.77893-1.1684-0.79586-1.4732-0.016933-0.28787-0.033867-0.59267-0.57573-0.59267-0.59267 0-0.59267 0.3556-0.59267 0.69427v2.2352c0 0.27093 0 0.69427 0.508 0.69427 0.37253 0 0.47413-0.23707 0.62653-0.77893 0.67733 0.508 1.7103 0.77893 2.794 0.77893 1.9643 0 3.1835-1.4901 3.1835-2.9972zm9.5673 2.286c0-0.508-0.44027-0.508-0.67733-0.508h-0.762v-5.5711c0-0.52493-0.1016-0.69426-0.67733-0.69426h-1.2361c-0.27093 0-0.69426 0-0.69426 0.52493 0 0.508 0.44027 0.508 0.67733 0.508h0.762v3.6068c0 1.524-1.3716 1.7272-1.9135 1.7272-1.3377 0-1.3377-0.5588-1.3377-1.1007v-4.572c0-0.52493-0.1016-0.69426-0.67733-0.69426h-1.2361c-0.27093 0-0.69426 0-0.69426 0.52493 0 0.508 0.44027 0.508 0.67733 0.508h0.762v4.3349c0 1.6256 1.1684 2.032 2.4045 2.032 0.69426 0 1.3885-0.16933 2.0151-0.64346 0.01693 0.54186 0.37253 0.54186 0.67733 0.54186h1.2361c0.27093 0 0.69426 0 0.69426-0.52493zm8.4836-3.1327c0-2.0828-1.5071-3.7423-3.302-3.7423-0.8128 0-1.5748 0.3048-2.1505 0.82973v-3.0819c0-0.52493-0.1016-0.69426-0.67733-0.69426h-1.2361c-0.27093 0-0.69427 0-0.69427 0.52493 0 0.508 0.44027 0.508 0.67733 0.508h0.762v8.619c0 0.33867 0 0.69426 0.59266 0.69426 0.57573 0 0.57573-0.33867 0.57573-0.762 0.69426 0.7112 1.4224 0.8636 1.9643 0.8636 1.8457 0 3.4883-1.6087 3.4883-3.7592zm-1.1684 0c0 1.6256-1.1853 2.7263-2.3707 2.7263-1.3208 0-1.9135-1.4901-1.9135-2.3029v-1.2361c0-0.99906 0.98213-1.8965 2.0489-1.8965 1.2531 0 2.2352 1.2361 2.2352 2.7093zm9.398 1.524c0-0.3048 0-0.6604-0.59266-0.6604-0.5588 0-0.57573 0.3556-0.57573 0.64346-0.01693 1.0499-0.98213 1.2192-1.3716 1.2192-1.3039 0-1.3039-0.88053-1.3039-1.3039v-4.0301h2.7771c0.254 0 0.67733 0 0.67733-0.508 0-0.52493-0.4064-0.52493-0.67733-0.52493h-2.7771v-1.3885c0-0.32173 0-0.69426-0.57573-0.69426-0.59267 0-0.59267 0.3556-0.59267 0.69426v1.3885h-1.4732c-0.27093 0-0.69426 0-0.69426 0.52493 0 0.508 0.42333 0.508 0.67733 0.508h1.4901v4.1317c0 1.6256 1.1515 2.2352 2.3876 2.2352 1.2531 0 2.6247-0.72813 2.6247-2.2352zm9.1948 1.6256c0-0.52493-0.4064-0.52493-0.67733-0.52493h-2.2013v-8.619c0-0.52493-0.1016-0.69426-0.67733-0.69426h-2.6755c-0.27093 0-0.69426 0-0.69426 0.52493 0 0.508 0.44027 0.508 0.67733 0.508h2.2013v8.2804h-2.1844c-0.27093 0-0.69426 0-0.69426 0.52493 0 0.508 0.44027 0.508 0.67733 0.508h5.5711c0.254 0 0.67733 0 0.67733-0.508zm8.8392-1.3377c0-0.47413-0.49107-0.47413-0.59267-0.47413-0.3048 0-0.44027 0.0508-0.5588 0.37253-0.37253 0.8636-1.2869 1.016-1.7611 1.016-1.27 0-2.54-0.84666-2.8109-2.3029h5.0461c0.3556 0 0.67733 0 0.67733-0.62653 0-1.9304-1.0837-3.5899-3.2851-3.5899-2.0151 0-3.6407 1.6933-3.6407 3.7761 0 2.0659 1.7103 3.7761 3.8947 3.7761 2.2352 0 3.0311-1.524 3.0311-1.9473zm-1.2023-2.4045h-4.5043c0.23707-1.2361 1.2361-2.1675 2.4215-2.1675 0.88053 0 1.9304 0.42333 2.0828 2.1675zm7.349 4.9615v-11.769c0-0.52493-0.1016-0.69426-0.67733-0.69426h-3.0649c-0.254 0-0.67733 0-0.67733 0.508 0 0.52493 0.4064 0.52493 0.67733 0.52493h2.5739v11.091h-2.5739c-0.254 0-0.67733 0-0.67733 0.508 0 0.52493 0.4064 0.52493 0.67733 0.52493h3.0649c0.5588 0 0.67733-0.1524 0.67733-0.69426z" stroke="#dfe0e8" stroke-width=".26458" aria-label="[Subtle]"/></g></svg>
